# xmcd
#
# Track frame offsets: 
#        150
#        17325
#        35112
#        53770
#        72295
#        102512
#
# Disc length: 1659 seconds
#
# Revision: 1
# Processed by: cddbd v1.5.2PL0 Copyright (c) Steve Scherf et al.
# Submitted via: ExactAudioCopyFreeDBPlugin 1.0
#
DISCID=4a067906
DTITLE=Joe - The One For Me [CDS)
DYEAR=1994
DGENRE=R&B
TTITLE0=The One For Me (The West End Radio Edit)
TTITLE1=The One For Me (Radio Edit)
TTITLE2=The One For Me (80´S Pressure Edit)
TTITLE3=The One For Me (Club Mix)
TTITLE4=The One For Me (SDA´S Club Dub)
TTITLE5=The One For Me (SDA´S Vocal Edit)
EXTD=YEAR: 1994 ID3G: 14
EXTT0=
EXTT1=
EXTT2=
EXTT3=
EXTT4=
EXTT5=
PLAYORDER=
